<?xml version="1.0" encoding="UTF-8" standalone="no"?><svg xmlns="http://www.w3.org/2000/svg" xmlns:xlink="http://www.w3.org/1999/xlink" contentScriptType="application/ecmascript" contentStyleType="text/css" height="702px" preserveAspectRatio="none" style="width:465px;height:702px;" version="1.1" viewBox="0 0 465 702" width="465px" zoomAndPan="magnify"><defs/><g><text fill="#000000" font-family="Sans" font-size="18" lengthAdjust="spacingAndGlyphs" textLength="441" x="12" y="26.708">Блок-схема алгоритма TaskListViewModel.tasks</text><text fill="#000000" font-family="Sans" font-size="18" lengthAdjust="spacingAndGlyphs" textLength="398" x="33.5" y="47.6611">(фильтрация и сортировка списка задач)</text><ellipse cx="226.5" cy="61.9063" fill="#000000" rx="10" ry="10" style="stroke: none; stroke-width: 1.0;"/><rect fill="#EAF4FF" height="47.9375" rx="12.5" ry="12.5" style="stroke: #2A6FBF; stroke-width: 1.5;" width="185" x="134" y="91.9063"/><text fill="#000000" font-family="Sans" font-size="12" lengthAdjust="spacingAndGlyphs" textLength="150" x="144" y="113.0449">Вход: all — все задачи,</text><text fill="#000000" font-family="Sans" font-size="12" lengthAdjust="spacingAndGlyphs" textLength="165" x="144" y="127.0137">f — фильтры/сортировка</text><rect fill="#EAF4FF" height="33.9688" rx="12.5" ry="12.5" style="stroke: #2A6FBF; stroke-width: 1.5;" width="129" x="162" y="159.8438"/><text fill="#000000" font-family="Sans" font-size="12" lengthAdjust="spacingAndGlyphs" textLength="109" x="172" y="180.9824">result := [], i := 0</text><rect fill="#EAF4FF" height="33.9688" rx="12.5" ry="12.5" style="stroke: #2A6FBF; stroke-width: 1.5;" width="74" x="189.5" y="269.5229"/><text fill="#000000" font-family="Sans" font-size="12" lengthAdjust="spacingAndGlyphs" textLength="54" x="199.5" y="290.6616">t := all[i]</text><rect fill="#EAF4FF" height="33.9688" rx="12.5" ry="12.5" style="stroke: #2A6FBF; stroke-width: 1.5;" width="89" x="182" y="373.5034"/><text fill="#000000" font-family="Sans" font-size="12" lengthAdjust="spacingAndGlyphs" textLength="69" x="192" y="394.6421">result += t</text><polygon fill="#FFF3D6" points="158,323.4917,295,323.4917,307,336.2964,295,349.1011,158,349.1011,146,336.2964,158,323.4917" style="stroke: #B07A00; stroke-width: 1.5;"/><text fill="#000000" font-family="Sans" font-size="11" lengthAdjust="spacingAndGlyphs" textLength="15" x="230.5" y="359.3115">да</text><text fill="#000000" font-family="Sans" font-size="11" lengthAdjust="spacingAndGlyphs" textLength="123" x="158" y="333.7021">t проходит фильтры</text><text fill="#000000" font-family="Sans" font-size="11" lengthAdjust="spacingAndGlyphs" textLength="137" x="158" y="346.5068">(query, status, project)?</text><text fill="#000000" font-family="Sans" font-size="11" lengthAdjust="spacingAndGlyphs" textLength="21" x="307" y="333.7021">нет</text><polygon fill="#FFF3D6" points="226.5,427.4722,238.5,439.4722,226.5,451.4722,214.5,439.4722,226.5,427.4722" style="stroke: #B07A00; stroke-width: 1.5;"/><rect fill="#EAF4FF" height="33.9688" rx="12.5" ry="12.5" style="stroke: #2A6FBF; stroke-width: 1.5;" width="74" x="189.5" y="471.4722"/><text fill="#000000" font-family="Sans" font-size="12" lengthAdjust="spacingAndGlyphs" textLength="54" x="199.5" y="492.6108">i := i + 1</text><polygon fill="#FFF3D6" points="192,213.8125,261,213.8125,273,225.8125,261,237.8125,192,237.8125,180,225.8125,192,213.8125" style="stroke: #B07A00; stroke-width: 1.5;"/><text fill="#000000" font-family="Sans" font-size="11" lengthAdjust="spacingAndGlyphs" textLength="15" x="230.5" y="248.0229">да</text><text fill="#000000" font-family="Sans" font-size="11" lengthAdjust="spacingAndGlyphs" textLength="69" x="192" y="229.6206">i &lt; size(all)?</text><text fill="#000000" font-family="Sans" font-size="11" lengthAdjust="spacingAndGlyphs" textLength="21" x="159" y="223.2183">нет</text><rect fill="#EAF4FF" height="47.9375" rx="12.5" ry="12.5" style="stroke: #2A6FBF; stroke-width: 1.5;" width="164" x="144.5" y="547.4409"/><text fill="#000000" font-family="Sans" font-size="12" lengthAdjust="spacingAndGlyphs" textLength="144" x="154.5" y="568.5796">отсортировать result</text><text fill="#000000" font-family="Sans" font-size="12" lengthAdjust="spacingAndGlyphs" textLength="67" x="154.5" y="582.5483">по f.sortBy</text><rect fill="#EAF4FF" height="33.9688" rx="12.5" ry="12.5" style="stroke: #2A6FBF; stroke-width: 1.5;" width="113" x="170" y="615.3784"/><text fill="#000000" font-family="Sans" font-size="12" lengthAdjust="spacingAndGlyphs" textLength="93" x="180" y="636.5171">вернуть result</text><ellipse cx="226.5" cy="680.3472" fill="#FFFFFF" rx="11" ry="11" style="stroke: #000000; stroke-width: 1.0;"/><ellipse cx="226.5" cy="680.3472" fill="#000000" rx="6" ry="6" style="stroke: #7F7F7F; stroke-width: 1.0;"/><line style="stroke: #333333; stroke-width: 1.5;" x1="226.5" x2="226.5" y1="71.9063" y2="91.9063"/><polygon fill="#333333" points="222.5,81.9063,226.5,91.9063,230.5,81.9063,226.5,85.9063" style="stroke: #333333; stroke-width: 1.0;"/><line style="stroke: #333333; stroke-width: 1.5;" x1="226.5" x2="226.5" y1="139.8438" y2="159.8438"/><polygon fill="#333333" points="222.5,149.8438,226.5,159.8438,230.5,149.8438,226.5,153.8438" style="stroke: #333333; stroke-width: 1.0;"/><line style="stroke: #333333; stroke-width: 1.5;" x1="226.5" x2="226.5" y1="349.1011" y2="373.5034"/><polygon fill="#333333" points="222.5,363.5034,226.5,373.5034,230.5,363.5034,226.5,367.5034" style="stroke: #333333; stroke-width: 1.0;"/><line style="stroke: #333333; stroke-width: 1.5;" x1="307" x2="319" y1="336.2964" y2="336.2964"/><polygon fill="#333333" points="315,380.0854,319,390.0854,323,380.0854,319,384.0854" style="stroke: #333333; stroke-width: 1.5;"/><line style="stroke: #333333; stroke-width: 1.5;" x1="319" x2="319" y1="336.2964" y2="439.4722"/><line style="stroke: #333333; stroke-width: 1.5;" x1="319" x2="238.5" y1="439.4722" y2="439.4722"/><polygon fill="#333333" points="248.5,435.4722,238.5,439.4722,248.5,443.4722,244.5,439.4722" style="stroke: #333333; stroke-width: 1.0;"/><line style="stroke: #333333; stroke-width: 1.5;" x1="226.5" x2="226.5" y1="407.4722" y2="427.4722"/><polygon fill="#333333" points="222.5,417.4722,226.5,427.4722,230.5,417.4722,226.5,421.4722" style="stroke: #333333; stroke-width: 1.0;"/><line style="stroke: #333333; stroke-width: 1.5;" x1="226.5" x2="226.5" y1="303.4917" y2="323.4917"/><polygon fill="#333333" points="222.5,313.4917,226.5,323.4917,230.5,313.4917,226.5,317.4917" style="stroke: #333333; stroke-width: 1.0;"/><line style="stroke: #333333; stroke-width: 1.5;" x1="226.5" x2="226.5" y1="451.4722" y2="471.4722"/><polygon fill="#333333" points="222.5,461.4722,226.5,471.4722,230.5,461.4722,226.5,465.4722" style="stroke: #333333; stroke-width: 1.0;"/><line style="stroke: #333333; stroke-width: 1.5;" x1="226.5" x2="226.5" y1="237.8125" y2="269.5229"/><polygon fill="#333333" points="222.5,259.5229,226.5,269.5229,230.5,259.5229,226.5,263.5229" style="stroke: #333333; stroke-width: 1.0;"/><line style="stroke: #333333; stroke-width: 1.5;" x1="226.5" x2="226.5" y1="505.4409" y2="515.4409"/><line style="stroke: #333333; stroke-width: 1.5;" x1="226.5" x2="331" y1="515.4409" y2="515.4409"/><polygon fill="#333333" points="327,381.2808,331,371.2808,335,381.2808,331,377.2808" style="stroke: #333333; stroke-width: 1.5;"/><line style="stroke: #333333; stroke-width: 1.5;" x1="331" x2="331" y1="225.8125" y2="515.4409"/><line style="stroke: #333333; stroke-width: 1.5;" x1="331" x2="273" y1="225.8125" y2="225.8125"/><polygon fill="#333333" points="283,221.8125,273,225.8125,283,229.8125,279,225.8125" style="stroke: #333333; stroke-width: 1.0;"/><line style="stroke: #333333; stroke-width: 1.5;" x1="180" x2="134" y1="225.8125" y2="225.8125"/><polygon fill="#333333" points="130,367.2808,134,377.2808,138,367.2808,134,371.2808" style="stroke: #333333; stroke-width: 1.5;"/><line style="stroke: #333333; stroke-width: 1.5;" x1="134" x2="134" y1="225.8125" y2="527.4409"/><line style="stroke: #333333; stroke-width: 1.5;" x1="134" x2="226.5" y1="527.4409" y2="527.4409"/><line style="stroke: #333333; stroke-width: 1.5;" x1="226.5" x2="226.5" y1="527.4409" y2="547.4409"/><polygon fill="#333333" points="222.5,537.4409,226.5,547.4409,230.5,537.4409,226.5,541.4409" style="stroke: #333333; stroke-width: 1.0;"/><line style="stroke: #333333; stroke-width: 1.5;" x1="226.5" x2="226.5" y1="193.8125" y2="213.8125"/><polygon fill="#333333" points="222.5,203.8125,226.5,213.8125,230.5,203.8125,226.5,207.8125" style="stroke: #333333; stroke-width: 1.0;"/><line style="stroke: #333333; stroke-width: 1.5;" x1="226.5" x2="226.5" y1="595.3784" y2="615.3784"/><polygon fill="#333333" points="222.5,605.3784,226.5,615.3784,230.5,605.3784,226.5,609.3784" style="stroke: #333333; stroke-width: 1.0;"/><line style="stroke: #333333; stroke-width: 1.5;" x1="226.5" x2="226.5" y1="649.3472" y2="669.3472"/><polygon fill="#333333" points="222.5,659.3472,226.5,669.3472,230.5,659.3472,226.5,663.3472" style="stroke: #333333; stroke-width: 1.0;"/><!--MD5=[9f4c93da80f6de14da6643ef002b7d19]
@startuml Flowchart_TaskListFilter
title Блок-схема алгоритма TaskListViewModel.tasks\n(фильтрация и сортировка списка задач)

skinparam backgroundColor #FFFFFF
skinparam shadowing false
skinparam ActivityBackgroundColor #EAF4FF
skinparam ActivityBorderColor #2A6FBF
skinparam ActivityDiamondBackgroundColor #FFF3D6
skinparam ActivityDiamondBorderColor #B07A00
skinparam ArrowColor #333333
skinparam defaultFontName Sans

start

:Вход: all — все задачи,\nf — фильтры/сортировка;
:result := [], i := 0;

while (i < size(all)?) is (да)
  :t := all[i];
  if (t проходит фильтры\n(query, status, project)?) then (да)
    :result += t;
  else (нет)
  endif
  :i := i + 1;
endwhile (нет)

:отсортировать result\nпо f.sortBy;
:вернуть result;

stop

@enduml

PlantUML version 1.2020.02(Sun Mar 01 10:22:07 UTC 2020)
(GPL source distribution)
Java Runtime: OpenJDK Runtime Environment
JVM: OpenJDK 64-Bit Server VM
Java Version: 21.0.10+7-Ubuntu-124.04
Operating System: Linux
Default Encoding: UTF-8
Language: en
Country: US
--></g></svg>