<?xml version="1.0" encoding="UTF-8" standalone="no"?><svg xmlns="http://www.w3.org/2000/svg" xmlns:xlink="http://www.w3.org/1999/xlink" contentScriptType="application/ecmascript" contentStyleType="text/css" height="1349px" preserveAspectRatio="none" style="width:483px;height:1349px;" version="1.1" viewBox="0 0 483 1349" width="483px" zoomAndPan="magnify"><defs/><g><text fill="#000000" font-family="Sans" font-size="18" lengthAdjust="spacingAndGlyphs" textLength="459" x="12" y="26.708">Блок-схема алгоритма DeadlineWorker.doWork()</text><text fill="#000000" font-family="Sans" font-size="18" lengthAdjust="spacingAndGlyphs" textLength="368" x="57.5" y="47.6611">(периодическая проверка дедлайнов)</text><ellipse cx="235.5" cy="61.9063" fill="#000000" rx="10" ry="10" style="stroke: none; stroke-width: 1.0;"/><rect fill="#EAF4FF" height="47.9375" rx="12.5" ry="12.5" style="stroke: #2A6FBF; stroke-width: 1.5;" width="196" x="137.5" y="91.9063"/><text fill="#000000" font-family="Sans" font-size="12" lengthAdjust="spacingAndGlyphs" textLength="102" x="147.5" y="113.0449">Запуск воркера</text><text fill="#000000" font-family="Sans" font-size="12" lengthAdjust="spacingAndGlyphs" textLength="176" x="147.5" y="127.0137">(WorkManager, период 6 ч)</text><rect fill="#EAF4FF" height="47.9375" rx="12.5" ry="12.5" style="stroke: #2A6FBF; stroke-width: 1.5;" width="168" x="151.5" y="159.8438"/><text fill="#000000" font-family="Sans" font-size="12" lengthAdjust="spacingAndGlyphs" textLength="148" x="161.5" y="180.9824">now := текущее время</text><text fill="#000000" font-family="Sans" font-size="12" lengthAdjust="spacingAndGlyphs" textLength="119" x="161.5" y="194.9512">until := now + 24 ч</text><rect fill="#EAF4FF" height="61.9063" rx="12.5" ry="12.5" style="stroke: #2A6FBF; stroke-width: 1.5;" width="284" x="93.5" y="227.7813"/><text fill="#000000" font-family="Sans" font-size="12" lengthAdjust="spacingAndGlyphs" textLength="264" x="103.5" y="248.9199">due ← TaskRepository.upcomingDue(until)</text><text fill="#000000" font-family="Sans" font-size="12" lengthAdjust="spacingAndGlyphs" textLength="242" x="103.5" y="262.8887">(задачи со статусом ≠ "Выполнена",</text><text fill="#000000" font-family="Sans" font-size="12" lengthAdjust="spacingAndGlyphs" textLength="246" x="103.5" y="276.8574">дедлайн ≤ until, ещё не уведомлены)</text><rect fill="#EAF4FF" height="33.9688" rx="12.5" ry="12.5" style="stroke: #2A6FBF; stroke-width: 1.5;" width="167" x="152" y="358.0898"/><text fill="#000000" font-family="Sans" font-size="12" lengthAdjust="spacingAndGlyphs" textLength="147" x="162" y="379.2285">return Result.success()</text><ellipse cx="235.5" cy="431.5742" fill="#FFFFFF" rx="11" ry="11" style="stroke: #000000; stroke-width: 1.0;"/><ellipse cx="235.5" cy="431.5742" fill="#000000" rx="6" ry="6" style="stroke: #7F7F7F; stroke-width: 1.0;"/><polygon fill="#FFF3D6" points="200,309.6875,271,309.6875,283,321.6875,271,333.6875,200,333.6875,188,321.6875,200,309.6875" style="stroke: #B07A00; stroke-width: 1.5;"/><text fill="#000000" font-family="Sans" font-size="11" lengthAdjust="spacingAndGlyphs" textLength="15" x="239.5" y="343.8979">да</text><text fill="#000000" font-family="Sans" font-size="11" lengthAdjust="spacingAndGlyphs" textLength="71" x="200" y="325.4956">due пустой?</text><text fill="#000000" font-family="Sans" font-size="11" lengthAdjust="spacingAndGlyphs" textLength="21" x="283" y="319.0933">нет</text><rect fill="#EAF4FF" height="33.9688" rx="12.5" ry="12.5" style="stroke: #2A6FBF; stroke-width: 1.5;" width="167" x="152" y="534.5859"/><text fill="#000000" font-family="Sans" font-size="12" lengthAdjust="spacingAndGlyphs" textLength="147" x="162" y="555.7246">return Result.success()</text><ellipse cx="235.5" cy="607.668" fill="#FFFFFF" rx="11" ry="11" style="stroke: #000000; stroke-width: 1.0;"/><ellipse cx="235.5" cy="607.668" fill="#000000" rx="6" ry="6" style="stroke: #7F7F7F; stroke-width: 1.0;"/><polygon fill="#FFF3D6" points="171,484.5742,300,484.5742,312,497.3789,300,510.1836,171,510.1836,159,497.3789,171,484.5742" style="stroke: #B07A00; stroke-width: 1.5;"/><text fill="#000000" font-family="Sans" font-size="11" lengthAdjust="spacingAndGlyphs" textLength="21" x="239.5" y="520.394">нет</text><text fill="#000000" font-family="Sans" font-size="11" lengthAdjust="spacingAndGlyphs" textLength="104" x="171" y="494.7847">есть разрешение</text><text fill="#000000" font-family="Sans" font-size="11" lengthAdjust="spacingAndGlyphs" textLength="129" x="171" y="507.5894">POST_NOTIFICATIONS?</text><text fill="#000000" font-family="Sans" font-size="11" lengthAdjust="spacingAndGlyphs" textLength="15" x="312" y="494.7847">да</text><rect fill="#EAF4FF" height="33.9688" rx="12.5" ry="12.5" style="stroke: #2A6FBF; stroke-width: 1.5;" width="53" x="209" y="660.668"/><text fill="#000000" font-family="Sans" font-size="12" lengthAdjust="spacingAndGlyphs" textLength="33" x="219" y="681.8066">i := 0</text><rect fill="#EAF4FF" height="33.9688" rx="12.5" ry="12.5" style="stroke: #2A6FBF; stroke-width: 1.5;" width="106" x="182.5" y="770.3472"/><text fill="#000000" font-family="Sans" font-size="12" lengthAdjust="spacingAndGlyphs" textLength="86" x="192.5" y="791.4858">task := due[i]</text><rect fill="#EAF4FF" height="47.9375" rx="12.5" ry="12.5" style="stroke: #2A6FBF; stroke-width: 1.5;" width="184" x="143.5" y="824.3159"/><text fill="#000000" font-family="Sans" font-size="12" lengthAdjust="spacingAndGlyphs" textLength="164" x="153.5" y="845.4546">построить PendingIntent</text><text fill="#000000" font-family="Sans" font-size="12" lengthAdjust="spacingAndGlyphs" textLength="86" x="153.5" y="859.4233">→ MainActivity</text><rect fill="#EAF4FF" height="47.9375" rx="12.5" ry="12.5" style="stroke: #2A6FBF; stroke-width: 1.5;" width="198" x="136.5" y="892.2534"/><text fill="#000000" font-family="Sans" font-size="12" lengthAdjust="spacingAndGlyphs" textLength="178" x="146.5" y="913.3921">собрать NotificationCompat</text><text fill="#000000" font-family="Sans" font-size="12" lengthAdjust="spacingAndGlyphs" textLength="172" x="146.5" y="927.3608">("Дедлайн скоро: &lt;title&gt;")</text><polygon fill="#FFF3D6" points="157,960.1909,314,960.1909,326,972.1909,314,984.1909,157,984.1909,145,972.1909,157,960.1909" style="stroke: #B07A00; stroke-width: 1.5;"/><text fill="#000000" font-family="Sans" font-size="11" lengthAdjust="spacingAndGlyphs" textLength="157" x="157" y="975.999">task.deadline − now ≤ 1 ч?</text><text fill="#000000" font-family="Sans" font-size="11" lengthAdjust="spacingAndGlyphs" textLength="15" x="130" y="969.5967">да</text><text fill="#000000" font-family="Sans" font-size="11" lengthAdjust="spacingAndGlyphs" textLength="21" x="326" y="969.5967">нет</text><rect fill="#EAF4FF" height="33.9688" rx="12.5" ry="12.5" style="stroke: #2A6FBF; stroke-width: 1.5;" width="115" x="77.5" y="994.1909"/><text fill="#000000" font-family="Sans" font-size="12" lengthAdjust="spacingAndGlyphs" textLength="95" x="87.5" y="1015.3296">priority := HIGH</text><rect fill="#EAF4FF" height="33.9688" rx="12.5" ry="12.5" style="stroke: #2A6FBF; stroke-width: 1.5;" width="139" x="266.5" y="994.1909"/><text fill="#000000" font-family="Sans" font-size="12" lengthAdjust="spacingAndGlyphs" textLength="119" x="276.5" y="1015.3296">priority := DEFAULT</text><polygon fill="#FFF3D6" points="235.5,1034.1597,247.5,1046.1597,235.5,1058.1597,223.5,1046.1597,235.5,1034.1597" style="stroke: #B07A00; stroke-width: 1.5;"/><rect fill="#EAF4FF" height="33.9688" rx="12.5" ry="12.5" style="stroke: #2A6FBF; stroke-width: 1.5;" width="236" x="117.5" y="1078.1597"/><text fill="#000000" font-family="Sans" font-size="12" lengthAdjust="spacingAndGlyphs" textLength="216" x="127.5" y="1099.2983">NotificationManager.notify(task.id)</text><rect fill="#EAF4FF" height="33.9688" rx="12.5" ry="12.5" style="stroke: #2A6FBF; stroke-width: 1.5;" width="250" x="110.5" y="1132.1284"/><text fill="#000000" font-family="Sans" font-size="12" lengthAdjust="spacingAndGlyphs" textLength="230" x="120.5" y="1153.2671">TaskRepository.markNotified(task.id)</text><rect fill="#EAF4FF" height="33.9688" rx="12.5" ry="12.5" style="stroke: #2A6FBF; stroke-width: 1.5;" width="74" x="198.5" y="1186.0972"/><text fill="#000000" font-family="Sans" font-size="12" lengthAdjust="spacingAndGlyphs" textLength="54" x="208.5" y="1207.2358">i := i + 1</text><polygon fill="#FFF3D6" points="197,714.6367,274,714.6367,286,726.6367,274,738.6367,197,738.6367,185,726.6367,197,714.6367" style="stroke: #B07A00; stroke-width: 1.5;"/><text fill="#000000" font-family="Sans" font-size="11" lengthAdjust="spacingAndGlyphs" textLength="15" x="239.5" y="748.8472">да</text><text fill="#000000" font-family="Sans" font-size="11" lengthAdjust="spacingAndGlyphs" textLength="77" x="197" y="730.4448">i &lt; size(due)?</text><text fill="#000000" font-family="Sans" font-size="11" lengthAdjust="spacingAndGlyphs" textLength="21" x="164" y="724.0425">нет</text><rect fill="#EAF4FF" height="33.9688" rx="12.5" ry="12.5" style="stroke: #2A6FBF; stroke-width: 1.5;" width="167" x="152" y="1262.0659"/><text fill="#000000" font-family="Sans" font-size="12" lengthAdjust="spacingAndGlyphs" textLength="147" x="162" y="1283.2046">return Result.success()</text><ellipse cx="235.5" cy="1327.0347" fill="#FFFFFF" rx="11" ry="11" style="stroke: #000000; stroke-width: 1.0;"/><ellipse cx="235.5" cy="1327.0347" fill="#000000" rx="6" ry="6" style="stroke: #7F7F7F; stroke-width: 1.0;"/><line style="stroke: #333333; stroke-width: 1.5;" x1="235.5" x2="235.5" y1="71.9063" y2="91.9063"/><polygon fill="#333333" points="231.5,81.9063,235.5,91.9063,239.5,81.9063,235.5,85.9063" style="stroke: #333333; stroke-width: 1.0;"/><line style="stroke: #333333; stroke-width: 1.5;" x1="235.5" x2="235.5" y1="139.8438" y2="159.8438"/><polygon fill="#333333" points="231.5,149.8438,235.5,159.8438,239.5,149.8438,235.5,153.8438" style="stroke: #333333; stroke-width: 1.0;"/><line style="stroke: #333333; stroke-width: 1.5;" x1="235.5" x2="235.5" y1="207.7813" y2="227.7813"/><polygon fill="#333333" points="231.5,217.7813,235.5,227.7813,239.5,217.7813,235.5,221.7813" style="stroke: #333333; stroke-width: 1.0;"/><line style="stroke: #333333; stroke-width: 1.5;" x1="235.5" x2="235.5" y1="392.0586" y2="420.5742"/><polygon fill="#333333" points="231.5,410.5742,235.5,420.5742,239.5,410.5742,235.5,414.5742" style="stroke: #333333; stroke-width: 1.0;"/><line style="stroke: #333333; stroke-width: 1.5;" x1="235.5" x2="235.5" y1="333.6875" y2="358.0898"/><polygon fill="#333333" points="231.5,348.0898,235.5,358.0898,239.5,348.0898,235.5,352.0898" style="stroke: #333333; stroke-width: 1.0;"/><line style="stroke: #333333; stroke-width: 1.5;" x1="283" x2="329" y1="321.6875" y2="321.6875"/><polygon fill="#333333" points="325,390.5742,329,400.5742,333,390.5742,329,394.5742" style="stroke: #333333; stroke-width: 1.5;"/><line style="stroke: #333333; stroke-width: 1.5;" x1="329" x2="329" y1="321.6875" y2="464.5742"/><line style="stroke: #333333; stroke-width: 1.5;" x1="329" x2="235.5" y1="464.5742" y2="464.5742"/><line style="stroke: #333333; stroke-width: 1.5;" x1="235.5" x2="235.5" y1="464.5742" y2="484.5742"/><polygon fill="#333333" points="231.5,474.5742,235.5,484.5742,239.5,474.5742,235.5,478.5742" style="stroke: #333333; stroke-width: 1.0;"/><line style="stroke: #333333; stroke-width: 1.5;" x1="235.5" x2="235.5" y1="289.6875" y2="309.6875"/><polygon fill="#333333" points="231.5,299.6875,235.5,309.6875,239.5,299.6875,235.5,303.6875" style="stroke: #333333; stroke-width: 1.0;"/><line style="stroke: #333333; stroke-width: 1.5;" x1="235.5" x2="235.5" y1="568.5547" y2="596.668"/><polygon fill="#333333" points="231.5,586.668,235.5,596.668,239.5,586.668,235.5,590.668" style="stroke: #333333; stroke-width: 1.0;"/><line style="stroke: #333333; stroke-width: 1.5;" x1="235.5" x2="235.5" y1="510.1836" y2="534.5859"/><polygon fill="#333333" points="231.5,524.5859,235.5,534.5859,239.5,524.5859,235.5,528.5859" style="stroke: #333333; stroke-width: 1.0;"/><line style="stroke: #333333; stroke-width: 1.5;" x1="312" x2="329" y1="497.3789" y2="497.3789"/><polygon fill="#333333" points="325,566.668,329,576.668,333,566.668,329,570.668" style="stroke: #333333; stroke-width: 1.5;"/><line style="stroke: #333333; stroke-width: 1.5;" x1="329" x2="329" y1="497.3789" y2="640.668"/><line style="stroke: #333333; stroke-width: 1.5;" x1="329" x2="235.5" y1="640.668" y2="640.668"/><line style="stroke: #333333; stroke-width: 1.5;" x1="235.5" x2="235.5" y1="640.668" y2="660.668"/><polygon fill="#333333" points="231.5,650.668,235.5,660.668,239.5,650.668,235.5,654.668" style="stroke: #333333; stroke-width: 1.0;"/><line style="stroke: #333333; stroke-width: 1.5;" x1="235.5" x2="235.5" y1="804.3159" y2="824.3159"/><polygon fill="#333333" points="231.5,814.3159,235.5,824.3159,239.5,814.3159,235.5,818.3159" style="stroke: #333333; stroke-width: 1.0;"/><line style="stroke: #333333; stroke-width: 1.5;" x1="235.5" x2="235.5" y1="872.2534" y2="892.2534"/><polygon fill="#333333" points="231.5,882.2534,235.5,892.2534,239.5,882.2534,235.5,886.2534" style="stroke: #333333; stroke-width: 1.0;"/><line style="stroke: #333333; stroke-width: 1.5;" x1="145" x2="135" y1="972.1909" y2="972.1909"/><line style="stroke: #333333; stroke-width: 1.5;" x1="135" x2="135" y1="972.1909" y2="994.1909"/><polygon fill="#333333" points="131,984.1909,135,994.1909,139,984.1909,135,988.1909" style="stroke: #333333; stroke-width: 1.0;"/><line style="stroke: #333333; stroke-width: 1.5;" x1="326" x2="336" y1="972.1909" y2="972.1909"/><line style="stroke: #333333; stroke-width: 1.5;" x1="336" x2="336" y1="972.1909" y2="994.1909"/><polygon fill="#333333" points="332,984.1909,336,994.1909,340,984.1909,336,988.1909" style="stroke: #333333; stroke-width: 1.0;"/><line style="stroke: #333333; stroke-width: 1.5;" x1="135" x2="135" y1="1028.1597" y2="1046.1597"/><line style="stroke: #333333; stroke-width: 1.5;" x1="135" x2="223.5" y1="1046.1597" y2="1046.1597"/><polygon fill="#333333" points="213.5,1042.1597,223.5,1046.1597,213.5,1050.1597,217.5,1046.1597" style="stroke: #333333; stroke-width: 1.0;"/><line style="stroke: #333333; stroke-width: 1.5;" x1="336" x2="336" y1="1028.1597" y2="1046.1597"/><line style="stroke: #333333; stroke-width: 1.5;" x1="336" x2="247.5" y1="1046.1597" y2="1046.1597"/><polygon fill="#333333" points="257.5,1042.1597,247.5,1046.1597,257.5,1050.1597,253.5,1046.1597" style="stroke: #333333; stroke-width: 1.0;"/><line style="stroke: #333333; stroke-width: 1.5;" x1="235.5" x2="235.5" y1="940.1909" y2="960.1909"/><polygon fill="#333333" points="231.5,950.1909,235.5,960.1909,239.5,950.1909,235.5,954.1909" style="stroke: #333333; stroke-width: 1.0;"/><line style="stroke: #333333; stroke-width: 1.5;" x1="235.5" x2="235.5" y1="1058.1597" y2="1078.1597"/><polygon fill="#333333" points="231.5,1068.1597,235.5,1078.1597,239.5,1068.1597,235.5,1072.1597" style="stroke: #333333; stroke-width: 1.0;"/><line style="stroke: #333333; stroke-width: 1.5;" x1="235.5" x2="235.5" y1="1112.1284" y2="1132.1284"/><polygon fill="#333333" points="231.5,1122.1284,235.5,1132.1284,239.5,1122.1284,235.5,1126.1284" style="stroke: #333333; stroke-width: 1.0;"/><line style="stroke: #333333; stroke-width: 1.5;" x1="235.5" x2="235.5" y1="1166.0972" y2="1186.0972"/><polygon fill="#333333" points="231.5,1176.0972,235.5,1186.0972,239.5,1176.0972,235.5,1180.0972" style="stroke: #333333; stroke-width: 1.0;"/><line style="stroke: #333333; stroke-width: 1.5;" x1="235.5" x2="235.5" y1="738.6367" y2="770.3472"/><polygon fill="#333333" points="231.5,760.3472,235.5,770.3472,239.5,760.3472,235.5,764.3472" style="stroke: #333333; stroke-width: 1.0;"/><line style="stroke: #333333; stroke-width: 1.5;" x1="235.5" x2="235.5" y1="1220.0659" y2="1230.0659"/><line style="stroke: #333333; stroke-width: 1.5;" x1="235.5" x2="419.5" y1="1230.0659" y2="1230.0659"/><polygon fill="#333333" points="415.5,986.8042,419.5,976.8042,423.5,986.8042,419.5,982.8042" style="stroke: #333333; stroke-width: 1.5;"/><line style="stroke: #333333; stroke-width: 1.5;" x1="419.5" x2="419.5" y1="726.6367" y2="1230.0659"/><line style="stroke: #333333; stroke-width: 1.5;" x1="419.5" x2="286" y1="726.6367" y2="726.6367"/><polygon fill="#333333" points="296,722.6367,286,726.6367,296,730.6367,292,726.6367" style="stroke: #333333; stroke-width: 1.0;"/><line style="stroke: #333333; stroke-width: 1.5;" x1="185" x2="63.5" y1="726.6367" y2="726.6367"/><polygon fill="#333333" points="59.5,972.8042,63.5,982.8042,67.5,972.8042,63.5,976.8042" style="stroke: #333333; stroke-width: 1.5;"/><line style="stroke: #333333; stroke-width: 1.5;" x1="63.5" x2="63.5" y1="726.6367" y2="1242.0659"/><line style="stroke: #333333; stroke-width: 1.5;" x1="63.5" x2="235.5" y1="1242.0659" y2="1242.0659"/><line style="stroke: #333333; stroke-width: 1.5;" x1="235.5" x2="235.5" y1="1242.0659" y2="1262.0659"/><polygon fill="#333333" points="231.5,1252.0659,235.5,1262.0659,239.5,1252.0659,235.5,1256.0659" style="stroke: #333333; stroke-width: 1.0;"/><line style="stroke: #333333; stroke-width: 1.5;" x1="235.5" x2="235.5" y1="694.6367" y2="714.6367"/><polygon fill="#333333" points="231.5,704.6367,235.5,714.6367,239.5,704.6367,235.5,708.6367" style="stroke: #333333; stroke-width: 1.0;"/><line style="stroke: #333333; stroke-width: 1.5;" x1="235.5" x2="235.5" y1="1296.0347" y2="1316.0347"/><polygon fill="#333333" points="231.5,1306.0347,235.5,1316.0347,239.5,1306.0347,235.5,1310.0347" style="stroke: #333333; stroke-width: 1.0;"/><!--MD5=[4c89127328f909804cc5615295952dff]
@startuml Flowchart_DeadlineWorker
title Блок-схема алгоритма DeadlineWorker.doWork()\n(периодическая проверка дедлайнов)

skinparam backgroundColor #FFFFFF
skinparam shadowing false
skinparam ActivityBackgroundColor #EAF4FF
skinparam ActivityBorderColor #2A6FBF
skinparam ActivityDiamondBackgroundColor #FFF3D6
skinparam ActivityDiamondBorderColor #B07A00
skinparam ArrowColor #333333
skinparam defaultFontName Sans

start

:Запуск воркера\n(WorkManager, период 6 ч);
:now := текущее время\nuntil := now + 24 ч;
:due ← TaskRepository.upcomingDue(until)\n(задачи со статусом ≠ "Выполнена",\nдедлайн ≤ until, ещё не уведомлены);

if (due пустой?) then (да)
  :return Result.success();
  stop
else (нет)
endif

if (есть разрешение\nPOST_NOTIFICATIONS?) then (нет)
  :return Result.success();
  stop
else (да)
endif

:i := 0;
while (i < size(due)?) is (да)
  :task := due[i];
  :построить PendingIntent\n→ MainActivity;
  :собрать NotificationCompat\n("Дедлайн скоро: <title>");

  if (task.deadline − now ≤ 1 ч?) then (да)
    :priority := HIGH;
  else (нет)
    :priority := DEFAULT;
  endif

  :NotificationManager.notify(task.id);
  :TaskRepository.markNotified(task.id);
  :i := i + 1;
endwhile (нет)

:return Result.success();
stop

@enduml

PlantUML version 1.2020.02(Sun Mar 01 10:22:07 UTC 2020)
(GPL source distribution)
Java Runtime: OpenJDK Runtime Environment
JVM: OpenJDK 64-Bit Server VM
Java Version: 21.0.10+7-Ubuntu-124.04
Operating System: Linux
Default Encoding: UTF-8
Language: en
Country: US
--></g></svg>